<svg width="50" height="50" viewBox="0 0 50 50" fill="none" xmlns="http://www.w3.org/2000/svg">
<path d="M25 33.3334L23.5858 34.7476L25 36.1618L26.4142 34.7476L25 33.3334ZM27 8.33337C27 7.2288 26.1046 6.33337 25 6.33337C23.8954 6.33337 23 7.2288 23 8.33337L27 8.33337ZM11.0858 22.2476L23.5858 34.7476L26.4142 31.9192L13.9142 19.4192L11.0858 22.2476ZM26.4142 34.7476L38.9142 22.2476L36.0858 19.4192L23.5858 31.9192L26.4142 34.7476ZM27 33.3334L27 8.33337L23 8.33337L23 33.3334L27 33.3334Z" fill="white"/>
<path d="M10.4165 43.75L39.5832 43.75" stroke="white" stroke-width="4"/>
</svg>
